<svg xmlns="http://www.w3.org/2000/svg" version="1.1" xmlns:xlink="http://www.w3.org/1999/xlink" xmlns:svgjs="http://svgjs.com/svgjs" width="1440" height="560" preserveAspectRatio="none" viewBox="0 0 1440 560"><g mask="url(&quot;#SvgjsMask4778&quot;)" fill="none"><rect width="1440" height="560" x="0" y="0" fill="url(#SvgjsLinearGradient4779)"></rect><path d="M0 191.02L10 159.09L20 135.38L30 181.06L40 189.45L50 137.94L60 124L70 54.3L80 74.81L90 100.26L100 83.73L110 118.71L120 188.57L130 246.84L140 193.56L150 134.67L160 77.57L170 111.74L180 116.57L190 183.36L200 126.83L210 120.34L220 182.13L230 232.56L240 193.17L250 256.74L260 237.09L270 198.76L280 160.85L290 171.26L300 121.48L310 92.76L320 141.77L330 83.36L340 152.47L350 174.81L360 187.11L370 202.77L380 207.79L390 275.25L400 320.4L410 367.46L420 311.88L430 243.19L440 211.92L450 198.12L460 191.65L470 149.45L480 195.88L490 162.68L500 159.18L510 207.98L520 256.9L530 215.83L540 278.79L550 309.37L560 257.81L570 264.29L580 200.82L590 169.56L600 216.46L610 192.97L620 203.17L630 181.65L640 192.49L650 214.4L660 240.06L670 260.88L680 249.04L690 208.94L700 248.43L710 312.51L720 356.93L730 308.83L740 325.46L750 263.55L760 292.46L770 322.59L780 392.29L790 422.96L800 376.5L810 385.54L820 363.63L830 296.87L840 323.45L850 336.8L860 280.93L870 268.55L880 200.45L890 255.49L900 288.61L910 316.06L920 267.58L930 233.26L940 237.14L950 223.47L960 209.65L970 172.98L980 159.89L990 106.87L1000 64.47L1010 31.28L1020 48.58L1030 61.64L1040 84.33L1050 73.67L1060 90.35L1070 127.12L1080 60.26L1090 90.75L1100 144.47L1110 173.97L1120 196.09L1130 185.05L1140 173.42L1150 199.55L1160 245.48L1170 241.06L1180 287.66L1190 304.57L1200 331.96L1210 327.09L1220 292.86L1230 342.25L1240 383.39L1250 316.73L1260 260.85L1270 281.04L1280 223.37L1290 195.4L1300 131.38L1310 194.35L1320 221.22L1330 192.13L1340 162.01L1350 181.02L1360 205.91L1370 273.82L1380 252.03L1390 288L1400 340.11L1410 364.6L1420 308.09L1430 280.37L1440 239.78" stroke="rgba(24, 24, 24, 1)" stroke-width="2"></path><path d="M0 191.02L10 159.09L20 135.38L30 181.06L40 189.45L50 137.94L60 124L70 54.3L80 74.81L90 100.26L100 83.73L110 118.71L120 188.57L130 246.84L140 193.56L150 134.67L160 77.57L170 111.74L180 116.57L190 183.36L200 126.83L210 120.34L220 182.13L230 232.56L240 193.17L250 256.74L260 237.09L270 198.76L280 160.85L290 171.26L300 121.48L310 92.76L320 141.77L330 83.36L340 152.47L350 174.81L360 187.11L370 202.77L380 207.79L390 275.25L400 320.4L410 367.46L420 311.88L430 243.19L440 211.92L450 198.12L460 191.65L470 149.45L480 195.88L490 162.68L500 159.18L510 207.98L520 256.9L530 215.83L540 278.79L550 309.37L560 257.81L570 264.29L580 200.82L590 169.56L600 216.46L610 192.97L620 203.17L630 181.65L640 192.49L650 214.4L660 240.06L670 260.88L680 249.04L690 208.94L700 248.43L710 312.51L720 356.93L730 308.83L740 325.46L750 263.55L760 292.46L770 322.59L780 392.29L790 422.96L800 376.5L810 385.54L820 363.63L830 296.87L840 323.45L850 336.8L860 280.93L870 268.55L880 200.45L890 255.49L900 288.61L910 316.06L920 267.58L930 233.26L940 237.14L950 223.47L960 209.65L970 172.98L980 159.89L990 106.87L1000 64.47L1010 31.28L1020 48.58L1030 61.64L1040 84.33L1050 73.67L1060 90.35L1070 127.12L1080 60.26L1090 90.75L1100 144.47L1110 173.97L1120 196.09L1130 185.05L1140 173.42L1150 199.55L1160 245.48L1170 241.06L1180 287.66L1190 304.57L1200 331.96L1210 327.09L1220 292.86L1230 342.25L1240 383.39L1250 316.73L1260 260.85L1270 281.04L1280 223.37L1290 195.4L1300 131.38L1310 194.35L1320 221.22L1330 192.13L1340 162.01L1350 181.02L1360 205.91L1370 273.82L1380 252.03L1390 288L1400 340.11L1410 364.6L1420 308.09L1430 280.37L1440 239.78L1440 560L0 560z" fill="url(#SvgjsLinearGradient4780)"></path></g><defs><mask id="SvgjsMask4778"><rect width="1440" height="560" fill="#ffffff"></rect></mask><linearGradient x1="50%" y1="0%" x2="50%" y2="100%" gradientUnits="userSpaceOnUse" id="SvgjsLinearGradient4779"><stop stop-color="rgba(61, 62, 64, 0.94)" offset="0.76"></stop><stop stop-color="rgba(34, 34, 36, 1)" offset="0.97"></stop></linearGradient><linearGradient x1="50%" y1="0%" x2="50%" y2="100%" id="SvgjsLinearGradient4780"><stop stop-opacity="0.65" stop-color="rgba(24, 24, 24, 1)" offset="0"></stop><stop stop-opacity="0" stop-color="#2d2d2d" offset="0.8"></stop></linearGradient></defs></svg>